# xmcd
#
# Track frame offsets:
#	150
#	11655
#	23450
#	37500
#	51185
#	63427
#	80370
#	95177
#	109525
#	122320
#	137280
#	148370
#	163345
#	178057
#	193732
#	208967
#
# Disc length: 2983 seconds
# Revision: 4
# Processed by: cddbd v1.5.2PL0 Copyright (c) Steve Scherf et al.
# Submitted via: dBpowerAMP V12.0
#
DISCID=d80ba510
DTITLE=George Jones - 16 Biggest Hits: George Jones
DYEAR=1998
DGENRE=Country
TTITLE0=A Picture of Me (Without You)
TTITLE1=What My Woman Can't Do
TTITLE2=The Grand Tour
TTITLE3=These Days (I Barely Get By)
TTITLE4=The Door
TTITLE5=Bartender's Blues
TTITLE6=He Stopped Loving Her Today
TTITLE7=If Drinkin' Don't Kill Me (Her Memory Will)
TTITLE8=Still Doin' Time
TTITLE9=I Always Get Lucky With You
TTITLE10=She's My Rock
TTITLE11=Wine Colored Roses
TTITLE12=The Right Left Hand
TTITLE13=Radio Lover
TTITLE14=The King Is Gone (So Are You)
TTITLE15=Who's Gonna Fill Their Shoes
EXTD=
EXTT0=
EXTT1=
EXTT2=
EXTT3=
EXTT4=
EXTT5=
EXTT6=
EXTT7=
EXTT8=
EXTT9=
EXTT10=
EXTT11=
EXTT12=
EXTT13=
EXTT14=
EXTT15=
PLAYORDER=
